# xmcd
#
# Track frame offsets:
#	150
#	14307
#	28683
#	44854
#	57315
#	70452
#	83809
#	103236
#	117863
#	133313
#	152684
#
# Disc length: 2240 seconds
#
# Revision: 0
# Processed by: cddbd v1.5.2PL0 Copyright (c) Steve Scherf et al.
# Submitted via: EZCDAudioConverter 1.0.8.1
#
DISCID=9e08be0b
DTITLE=Will Banister - Turned Her On To Country
DYEAR=2010
DGENRE=Country
TTITLE0=Will Banister - Turned Her On To Country
TTITLE1=Will Banister - Modern Day Rambler
TTITLE2=Will Banister - I Hate Santa Fe (Tessa's Song)
TTITLE3=Will Banister - I've Never Been Any Other Way
TTITLE4=Will Banister - Give Me One Minute
TTITLE5=Will Banister - I Really Had Her Going
TTITLE6=Will Banister - You Remind Me
TTITLE7=Will Banister - I Don't Want to Loose You
TTITLE8=Will Banister - Since I Lost You
TTITLE9=Will Banister - If I Had Time
TTITLE10=Artiste inconnu - Hurtin' Song
EXTD=
EXTT0=
EXTT1=
EXTT2=
EXTT3=
EXTT4=
EXTT5=
EXTT6=
EXTT7=
EXTT8=
EXTT9=
EXTT10=
PLAYORDER=
